<?xml version="1.0" encoding="UTF-8"?>
<svg xmlns="http://www.w3.org/2000/svg" xmlns:xlink="http://www.w3.org/1999/xlink" width="854" height="480" viewBox="0 0 854 480">
<defs>
<g>
<g id="glyph-0-0">
<path d="M 1.71875 0.0625 C 1.34375 0.0625 1.039062 -0.0390625 0.8125 -0.25 C 0.59375 -0.457031 0.484375 -0.742188 0.484375 -1.109375 L 0.484375 -1.953125 C 0.484375 -2.304688 0.59375 -2.585938 0.8125 -2.796875 C 1.039062 -3.003906 1.34375 -3.109375 1.71875 -3.109375 C 2.0625 -3.109375 2.34375 -3.015625 2.5625 -2.828125 C 2.78125 -2.640625 2.894531 -2.382812 2.90625 -2.0625 L 2.40625 -2.0625 C 2.394531 -2.257812 2.328125 -2.410156 2.203125 -2.515625 C 2.085938 -2.617188 1.925781 -2.671875 1.71875 -2.671875 C 1.5 -2.671875 1.320312 -2.609375 1.1875 -2.484375 C 1.050781 -2.359375 0.984375 -2.179688 0.984375 -1.953125 L 0.984375 -1.109375 C 0.984375 -0.878906 1.050781 -0.703125 1.1875 -0.578125 C 1.320312 -0.453125 1.5 -0.390625 1.71875 -0.390625 C 1.925781 -0.390625 2.085938 -0.441406 2.203125 -0.546875 C 2.328125 -0.660156 2.394531 -0.8125 2.40625 -1 L 2.90625 -1 C 2.894531 -0.675781 2.78125 -0.414062 2.5625 -0.21875 C 2.34375 -0.03125 2.0625 0.0625 1.71875 0.0625 Z "/>
</g>
<g id="glyph-0-1">
<path d="M 0.515625 0 L 0.515625 -4.0625 L 1.015625 -4.0625 L 1.015625 -2.46875 C 1.046875 -2.675781 1.128906 -2.832031 1.265625 -2.9375 C 1.410156 -3.050781 1.597656 -3.109375 1.828125 -3.109375 C 2.140625 -3.109375 2.382812 -3.015625 2.5625 -2.828125 C 2.75 -2.640625 2.84375 -2.382812 2.84375 -2.0625 L 2.84375 0 L 2.34375 0 L 2.34375 -1.96875 C 2.34375 -2.195312 2.28125 -2.375 2.15625 -2.5 C 2.039062 -2.625 1.882812 -2.6875 1.6875 -2.6875 C 1.476562 -2.6875 1.3125 -2.617188 1.1875 -2.484375 C 1.070312 -2.359375 1.015625 -2.179688 1.015625 -1.953125 L 1.015625 0 Z "/>
</g>
<g id="glyph-0-2">
<path d="M 1.65625 0.0625 C 1.3125 0.0625 1.03125 -0.0390625 0.8125 -0.25 C 0.601562 -0.46875 0.5 -0.753906 0.5 -1.109375 L 0.5 -3.0625 L 1 -3.0625 L 1 -1.109375 C 1 -0.890625 1.054688 -0.710938 1.171875 -0.578125 C 1.296875 -0.453125 1.457031 -0.390625 1.65625 -0.390625 C 1.863281 -0.390625 2.03125 -0.453125 2.15625 -0.578125 C 2.28125 -0.710938 2.34375 -0.890625 2.34375 -1.109375 L 2.34375 -3.0625 L 2.84375 -3.0625 L 2.84375 -1.109375 C 2.84375 -0.753906 2.734375 -0.46875 2.515625 -0.25 C 2.296875 -0.0390625 2.007812 0.0625 1.65625 0.0625 Z "/>
</g>
<g id="glyph-0-3">
<path d="M 0.515625 0 L 0.515625 -3.0625 L 1.015625 -3.0625 L 1.015625 -2.46875 C 1.046875 -2.675781 1.128906 -2.832031 1.265625 -2.9375 C 1.410156 -3.050781 1.597656 -3.109375 1.828125 -3.109375 C 2.140625 -3.109375 2.382812 -3.015625 2.5625 -2.828125 C 2.75 -2.640625 2.84375 -2.382812 2.84375 -2.0625 L 2.84375 0 L 2.34375 0 L 2.34375 -1.96875 C 2.34375 -2.195312 2.28125 -2.375 2.15625 -2.5 C 2.039062 -2.625 1.882812 -2.6875 1.6875 -2.6875 C 1.476562 -2.6875 1.3125 -2.617188 1.1875 -2.484375 C 1.070312 -2.359375 1.015625 -2.179688 1.015625 -1.953125 L 1.015625 0 Z "/>
</g>
<g id="glyph-0-4">
<path d="M 0.546875 0 L 0.546875 -4.0625 L 1.046875 -4.0625 L 1.046875 -1.796875 L 1.625 -1.796875 L 2.484375 -3.0625 L 3.046875 -3.0625 L 2.0625 -1.609375 L 3.109375 0 L 2.53125 0 L 1.640625 -1.359375 L 1.046875 -1.359375 L 1.046875 0 Z "/>
</g>
<g id="glyph-0-5">
</g>
<g id="glyph-0-6">
<path d="M 0.5 0 L 0.5 -0.453125 L 1.609375 -0.453125 L 1.609375 -3.625 L 0.5 -2.796875 L 0.5 -3.375 L 1.421875 -4.0625 L 2.109375 -4.0625 L 2.109375 -0.453125 L 3 -0.453125 L 3 0 Z "/>
</g>
</g>
</defs>
<g fill="rgb(0.784314%, 1.176471%, 2.352941%)" fill-opacity="1">
<use xlink:href="#glyph-0-0" x="30" y="25.666992"/>
<use xlink:href="#glyph-0-1" x="33" y="25.666992"/>
<use xlink:href="#glyph-0-2" x="36" y="25.666992"/>
<use xlink:href="#glyph-0-3" x="39" y="25.666992"/>
<use xlink:href="#glyph-0-4" x="42" y="25.666992"/>
<use xlink:href="#glyph-0-5" x="45" y="25.666992"/>
<use xlink:href="#glyph-0-6" x="48" y="25.666992"/>
</g>
</svg>
