<?xml version="1.0" encoding="UTF-8"?>
<svg xmlns="http://www.w3.org/2000/svg" xmlns:xlink="http://www.w3.org/1999/xlink" width="854" height="480" viewBox="0 0 854 480">
<defs>
<g>
<g id="glyph-0-0">
<path d="M 1.625 0.046875 C 1.257812 0.046875 0.976562 -0.03125 0.78125 -0.1875 C 0.59375 -0.351562 0.5 -0.582031 0.5 -0.875 L 1.015625 -0.875 C 1.015625 -0.726562 1.066406 -0.613281 1.171875 -0.53125 C 1.273438 -0.445312 1.425781 -0.40625 1.625 -0.40625 L 1.875 -0.40625 C 2.070312 -0.40625 2.222656 -0.445312 2.328125 -0.53125 C 2.429688 -0.625 2.484375 -0.742188 2.484375 -0.890625 C 2.484375 -1.171875 2.359375 -1.328125 2.109375 -1.359375 L 1.21875 -1.484375 C 1 -1.515625 0.828125 -1.601562 0.703125 -1.75 C 0.585938 -1.90625 0.53125 -2.109375 0.53125 -2.359375 C 0.53125 -2.640625 0.625 -2.859375 0.8125 -3.015625 C 1.007812 -3.171875 1.28125 -3.25 1.625 -3.25 L 1.875 -3.25 C 2.1875 -3.25 2.441406 -3.171875 2.640625 -3.015625 C 2.835938 -2.867188 2.941406 -2.671875 2.953125 -2.421875 L 2.421875 -2.421875 C 2.410156 -2.535156 2.351562 -2.628906 2.25 -2.703125 C 2.15625 -2.773438 2.03125 -2.8125 1.875 -2.8125 L 1.625 -2.8125 C 1.445312 -2.8125 1.304688 -2.769531 1.203125 -2.6875 C 1.097656 -2.601562 1.046875 -2.492188 1.046875 -2.359375 C 1.046875 -2.128906 1.148438 -2 1.359375 -1.96875 L 2.1875 -1.859375 C 2.726562 -1.773438 3 -1.453125 3 -0.890625 C 3 -0.597656 2.898438 -0.367188 2.703125 -0.203125 C 2.503906 -0.0351562 2.226562 0.046875 1.875 0.046875 Z "/>
</g>
<g id="glyph-0-1">
<path d="M 0.53125 1.046875 L 0.53125 -3.203125 L 1.0625 -3.203125 L 1.0625 -2.59375 C 1.09375 -2.800781 1.1875 -2.960938 1.34375 -3.078125 C 1.5 -3.203125 1.695312 -3.265625 1.9375 -3.265625 C 2.257812 -3.265625 2.515625 -3.15625 2.703125 -2.9375 C 2.890625 -2.726562 2.984375 -2.441406 2.984375 -2.078125 L 2.984375 -1.140625 C 2.984375 -0.765625 2.890625 -0.46875 2.703125 -0.25 C 2.515625 -0.0390625 2.257812 0.0625 1.9375 0.0625 C 1.695312 0.0625 1.5 0.00390625 1.34375 -0.109375 C 1.1875 -0.234375 1.09375 -0.398438 1.0625 -0.609375 L 1.046875 -0.609375 L 1.0625 0.109375 L 1.0625 1.046875 Z M 1.765625 -0.390625 C 1.984375 -0.390625 2.15625 -0.445312 2.28125 -0.5625 C 2.40625 -0.6875 2.46875 -0.878906 2.46875 -1.140625 L 2.46875 -2.0625 C 2.46875 -2.332031 2.40625 -2.523438 2.28125 -2.640625 C 2.15625 -2.753906 1.984375 -2.8125 1.765625 -2.8125 C 1.546875 -2.8125 1.375 -2.742188 1.25 -2.609375 C 1.125 -2.472656 1.0625 -2.285156 1.0625 -2.046875 L 1.0625 -1.171875 C 1.0625 -0.921875 1.125 -0.726562 1.25 -0.59375 C 1.375 -0.457031 1.546875 -0.390625 1.765625 -0.390625 Z "/>
</g>
<g id="glyph-0-2">
<path d="M 1.75 0.0625 C 1.375 0.0625 1.066406 -0.0507812 0.828125 -0.28125 C 0.597656 -0.507812 0.484375 -0.820312 0.484375 -1.21875 L 0.484375 -1.984375 C 0.484375 -2.378906 0.597656 -2.691406 0.828125 -2.921875 C 1.066406 -3.148438 1.375 -3.265625 1.75 -3.265625 C 2 -3.265625 2.21875 -3.210938 2.40625 -3.109375 C 2.59375 -3.003906 2.738281 -2.859375 2.84375 -2.671875 C 2.945312 -2.492188 3 -2.285156 3 -2.046875 L 3 -1.46875 L 1 -1.46875 L 1 -1.171875 C 1 -0.929688 1.066406 -0.738281 1.203125 -0.59375 C 1.335938 -0.457031 1.519531 -0.390625 1.75 -0.390625 C 1.945312 -0.390625 2.109375 -0.425781 2.234375 -0.5 C 2.359375 -0.582031 2.429688 -0.6875 2.453125 -0.8125 L 2.984375 -0.8125 C 2.953125 -0.539062 2.820312 -0.328125 2.59375 -0.171875 C 2.363281 -0.015625 2.082031 0.0625 1.75 0.0625 Z M 1 -1.875 L 2.5 -1.875 L 2.5 -2.046875 C 2.5 -2.296875 2.429688 -2.488281 2.296875 -2.625 C 2.171875 -2.757812 1.988281 -2.828125 1.75 -2.828125 C 1.507812 -2.828125 1.320312 -2.757812 1.1875 -2.625 C 1.0625 -2.488281 1 -2.296875 1 -2.046875 Z "/>
</g>
<g id="glyph-0-3">
<path d="M 1.46875 0.0625 C 1.132812 0.0625 0.867188 -0.03125 0.671875 -0.21875 C 0.484375 -0.40625 0.390625 -0.644531 0.390625 -0.9375 C 0.390625 -1.132812 0.429688 -1.304688 0.515625 -1.453125 C 0.609375 -1.609375 0.734375 -1.726562 0.890625 -1.8125 C 1.054688 -1.894531 1.242188 -1.9375 1.453125 -1.9375 L 2.4375 -1.9375 L 2.4375 -2.1875 C 2.4375 -2.601562 2.207031 -2.8125 1.75 -2.8125 C 1.550781 -2.8125 1.390625 -2.773438 1.265625 -2.703125 C 1.140625 -2.628906 1.070312 -2.523438 1.0625 -2.390625 L 0.546875 -2.390625 C 0.566406 -2.640625 0.679688 -2.847656 0.890625 -3.015625 C 1.109375 -3.179688 1.394531 -3.265625 1.75 -3.265625 C 2.144531 -3.265625 2.441406 -3.171875 2.640625 -2.984375 C 2.847656 -2.796875 2.953125 -2.535156 2.953125 -2.203125 L 2.953125 0 L 2.4375 0 L 2.4375 -0.578125 C 2.40625 -0.378906 2.300781 -0.222656 2.125 -0.109375 C 1.957031 0.00390625 1.738281 0.0625 1.46875 0.0625 Z M 1.59375 -0.390625 C 1.851562 -0.390625 2.054688 -0.445312 2.203125 -0.5625 C 2.359375 -0.6875 2.4375 -0.859375 2.4375 -1.078125 L 2.4375 -1.53125 L 1.5 -1.53125 C 1.332031 -1.53125 1.191406 -1.476562 1.078125 -1.375 C 0.972656 -1.269531 0.921875 -1.132812 0.921875 -0.96875 C 0.921875 -0.78125 0.976562 -0.632812 1.09375 -0.53125 C 1.21875 -0.4375 1.382812 -0.390625 1.59375 -0.390625 Z "/>
</g>
<g id="glyph-0-4">
<path d="M 0.5625 0 L 0.5625 -4.25 L 1.09375 -4.25 L 1.09375 -1.875 L 1.703125 -1.875 L 2.59375 -3.203125 L 3.203125 -3.203125 L 2.171875 -1.671875 L 3.265625 0 L 2.640625 0 L 1.71875 -1.421875 L 1.09375 -1.421875 L 1.09375 0 Z "/>
</g>
</g>
</defs>
<g fill="rgb(0.784314%, 1.176471%, 2.352941%)" fill-opacity="1">
<use xlink:href="#glyph-0-0" x="30" y="25.949219"/>
<use xlink:href="#glyph-0-1" x="34" y="25.949219"/>
<use xlink:href="#glyph-0-2" x="38" y="25.949219"/>
<use xlink:href="#glyph-0-3" x="42" y="25.949219"/>
<use xlink:href="#glyph-0-4" x="46" y="25.949219"/>
</g>
</svg>
